# xmcd
#
# Track frame offsets:
# 187
# 12790
# 27835
# 37997
# 50655
# 63467
# 77092
# 89967
# 111515
# 134180
# 157747
# 177247
# 190845
# 203187
# 217215
# 227707
# 236380
# 257792
# 279675
# 291877
#
# Disc length: 4051 seconds
#
# Revision: 0
# Processed by: cddbd v1.4PL0 Copyright (c) Steve Scherf et al.
# Submitted via: MacMP3 Pro 5.0 (http://mp3.act2.co.jp/)
#
DISCID=2e0fd114
DTITLE=Pop Philharmonic Orchestra Munich/etc - B.G.M. for Drive POP ~ CLASSIC
DYEAR=1900
DGENRE=
TTITLE0=AUF EINEN PERSISCHEN MARKT
TTITLE1=DIE MOLDAU
TTITLE2=MENUETT
TTITLE3=COPPELIA-WALZER
TTITLE4=HUMORESKE
TTITLE5=FRUHLINGSLIED
TTITLE6=DONAUWELLEN
TTITLE7=AN DER SCHONEN BLAUEN DONAU
TTITLE8=GSCHICHTEN AUS DEM WIENER WALD
TTITLE9=KAISERWALZER
TTITLE10=SINFONIE Nr. 40
TTITLE11=UNGARISHER TANZ Nr. 4
TTITLE12=TURKISCHER MARSCH
TTITLE13=ADAGIO AUS DER SONATE Nr. 8
TTITLE14=WIEN BLEIBT WIEN
TTITLE15=TURKISCHER MARSCH
TTITLE16=MARCHE MILTAIRE
TTITLE17=PIKANTERIEN
TTITLE18=WIENER BURGER-WALZER
TTITLE19=ROSAMUNDE-POLKA
EXTD=
EXTT0=
EXTT1=
EXTT2=
EXTT3=
EXTT4=
EXTT5=
EXTT6=
EXTT7=
EXTT8=
EXTT9=
EXTT10=
EXTT11=
EXTT12=
EXTT13=
EXTT14=
EXTT15=
EXTT16=
EXTT17=
EXTT18=
EXTT19=
PLAYORDER=
